<?xml version="1.0" encoding="UTF-8" standalone="no"?>
<!-- Created with Inkscape (http://www.inkscape.org/) -->

<svg
   xmlns:dc="http://purl.org/dc/elements/1.1/"
   xmlns:cc="http://creativecommons.org/ns#"
   xmlns:rdf="http://www.w3.org/1999/02/22-rdf-syntax-ns#"
   xmlns:svg="http://www.w3.org/2000/svg"
   xmlns="http://www.w3.org/2000/svg"
   xmlns:sodipodi="http://sodipodi.sourceforge.net/DTD/sodipodi-0.dtd"
   xmlns:inkscape="http://www.inkscape.org/namespaces/inkscape"
   width="374.648"
   height="255.135"
   id="svg18275"
   sodipodi:version="0.32"
   inkscape:version="0.92.3 (2405546, 2018-03-11)"
   sodipodi:docname="golden-ratio.svg"
   inkscape:output_extension="org.inkscape.output.svg.inkscape"
   version="1.1">
  <defs
     id="defs18277">
    <inkscape:perspective
       sodipodi:type="inkscape:persp3d"
       inkscape:vp_x="0 : 526.181 : 1"
       inkscape:vp_y="0 : 1000 : 0"
       inkscape:vp_z="744.094 : 526.181 : 1"
       inkscape:persp3d-origin="372.047 : 350.787 : 1"
       id="perspective2610" />
    <marker
       inkscape:stockid="Arrow1Lend"
       orient="auto"
       refY="0"
       refX="0"
       id="Arrow1Lend"
       style="overflow:visible">
      <path
         id="path7459"
         d="M 0,0 5,-5 -12.5,0 5,5 Z"
         style="fill-rule:evenodd;stroke:#000000;stroke-width:1pt;marker-start:none"
         transform="matrix(-0.8,0,0,-0.8,-10,0)"
         inkscape:connector-curvature="0" />
    </marker>
  </defs>
  <sodipodi:namedview
     id="base"
     pagecolor="#ffffff"
     bordercolor="#000000"
     borderopacity="1"
     inkscape:pageopacity="0.0"
     inkscape:pageshadow="0"
     inkscape:zoom="1"
     inkscape:cx="409.92149"
     inkscape:cy="1325.5509"
     inkscape:document-units="px"
     inkscape:current-layer="layer1"
     inkscape:window-width="1536"
     inkscape:window-height="801"
     inkscape:window-x="1528"
     inkscape:window-y="-8"
     showgrid="false"
     inkscape:window-maximized="1" />
  <metadata
     id="metadata18280">
    <rdf:RDF>
      <cc:Work
         rdf:about="">
        <dc:format>image/svg+xml</dc:format>
        <dc:type
           rdf:resource="http://purl.org/dc/dcmitype/StillImage" />
        <dc:title />
      </cc:Work>
    </rdf:RDF>
  </metadata>
  <g
     inkscape:label="Layer 1"
     inkscape:groupmode="layer"
     id="layer1"
     transform="translate(-174.177,-100.893)">
    <rect
       style="color:#000000;display:inline;overflow:visible;visibility:visible;opacity:0.23;fill:#d3d7cf;fill-opacity:1;fill-rule:nonzero;stroke:none;stroke-width:1.257308;stroke-linecap:butt;stroke-linejoin:miter;stroke-miterlimit:4;stroke-dasharray:none;stroke-dashoffset:0;stroke-opacity:1;marker:none;marker-start:none;marker-mid:none;marker-end:none"
       id="rect27251"
       width="318.511"
       height="66.6593"
       x="203.251"
       y="289.369"
       rx="16.8428"
       ry="16.8428" />
    <text
       xml:space="preserve"
       style="color:#000000;font-style:normal;font-variant:normal;font-weight:normal;font-stretch:normal;font-size:23.406548px;line-height:125%;font-family:'Comic Sans MS';text-indent:0;text-align:start;text-decoration:none;text-decoration-line:none;letter-spacing:normal;word-spacing:normal;text-transform:none;writing-mode:lr-tb;direction:ltr;text-anchor:start;display:inline;overflow:visible;visibility:visible;opacity:1;fill:#0000ff;fill-opacity:1;fill-rule:nonzero;stroke:none;stroke-width:0.628654px;stroke-linecap:butt;stroke-linejoin:miter;stroke-miterlimit:4;stroke-dasharray:none;stroke-dashoffset:0;stroke-opacity:1;marker:none;marker-start:none;marker-mid:none;marker-end:none"
       x="289.131"
       y="123.066"
       id="text21839"><tspan
         sodipodi:role="line"
         id="tspan21841"
         x="289.131"
         y="123.066"
         style="fill:#0000ff;fill-opacity:1;stroke-width:0.628654px">a</tspan></text>
    <text
       xml:space="preserve"
       style="color:#000000;font-style:normal;font-variant:normal;font-weight:normal;font-stretch:normal;font-size:23.406548px;line-height:125%;font-family:'Comic Sans MS';text-indent:0;text-align:start;text-decoration:none;text-decoration-line:none;letter-spacing:normal;word-spacing:normal;text-transform:none;writing-mode:lr-tb;direction:ltr;text-anchor:start;display:inline;overflow:visible;visibility:visible;opacity:1;fill:#2d2d2d;fill-opacity:1;fill-rule:nonzero;stroke:none;stroke-width:0.628654px;stroke-linecap:butt;stroke-linejoin:miter;stroke-miterlimit:4;stroke-dasharray:none;stroke-dashoffset:0;stroke-opacity:1;marker:none;marker-start:none;marker-mid:none;marker-end:none"
       x="341.424"
       y="192.778"
       id="text21847"><tspan
         sodipodi:role="line"
         id="tspan21849"
         x="341.424"
         y="192.778"
         style="fill:#2d2d2d;stroke-width:0.628654px">a+b</tspan></text>
    <text
       id="text22740"
       y="156.554"
       x="456.799"
       style="color:#000000;font-style:normal;font-variant:normal;font-weight:normal;font-stretch:normal;font-size:23.406548px;line-height:125%;font-family:'Comic Sans MS';text-indent:0;text-align:start;text-decoration:none;text-decoration-line:none;letter-spacing:normal;word-spacing:normal;text-transform:none;writing-mode:lr-tb;direction:ltr;text-anchor:start;display:inline;overflow:visible;visibility:visible;opacity:1;fill:#ff8c00;fill-opacity:1;fill-rule:nonzero;stroke:none;stroke-width:0.628654px;stroke-linecap:butt;stroke-linejoin:miter;stroke-miterlimit:4;stroke-dasharray:none;stroke-dashoffset:0;stroke-opacity:1;marker:none;marker-start:none;marker-mid:none;marker-end:none"
       xml:space="preserve"><tspan
         y="156.554"
         x="456.799"
         id="tspan22742"
         sodipodi:role="line"
         style="fill:#ff8c00;fill-opacity:1;stroke-width:0.628654px">b</tspan></text>
    <text
       xml:space="preserve"
       style="color:#000000;font-style:normal;font-variant:normal;font-weight:normal;font-stretch:normal;font-size:23.406548px;line-height:125%;font-family:'Comic Sans MS';text-indent:0;text-align:start;text-decoration:none;text-decoration-line:none;letter-spacing:normal;word-spacing:normal;text-transform:none;writing-mode:lr-tb;direction:ltr;text-anchor:start;display:inline;overflow:visible;visibility:visible;opacity:1;fill:#2d2d2d;fill-opacity:1;fill-rule:nonzero;stroke:none;stroke-width:0.628654px;stroke-linecap:butt;stroke-linejoin:miter;stroke-miterlimit:4;stroke-dasharray:none;stroke-dashoffset:0;stroke-opacity:1;marker:none;marker-start:none;marker-mid:none;marker-end:none"
       x="302.27"
       y="315.46"
       id="text22756"><tspan
         sodipodi:role="line"
         id="tspan22758"
         x="302.27"
         y="315.46"
         style="fill:#2d2d2d;stroke-width:0.628654px">a+b</tspan></text>
    <text
       xml:space="preserve"
       style="color:#000000;font-style:normal;font-variant:normal;font-weight:normal;font-stretch:normal;font-size:23.406548px;line-height:125%;font-family:'Comic Sans MS';text-indent:0;text-align:start;text-decoration:none;text-decoration-line:none;letter-spacing:normal;word-spacing:normal;text-transform:none;writing-mode:lr-tb;direction:ltr;text-anchor:start;display:inline;overflow:visible;visibility:visible;opacity:1;fill:#0000ff;fill-opacity:1;fill-rule:nonzero;stroke:none;stroke-width:0.628654px;stroke-linecap:butt;stroke-linejoin:miter;stroke-miterlimit:4;stroke-dasharray:none;stroke-dashoffset:0;stroke-opacity:1;marker:none;marker-start:none;marker-mid:none;marker-end:none"
       x="314.488"
       y="341.678"
       id="text22760"><tspan
         sodipodi:role="line"
         id="tspan22762"
         x="314.488"
         y="341.678"
         style="fill:#0000ff;fill-opacity:1;stroke-width:0.628654px">a</tspan></text>
    <text
       xml:space="preserve"
       style="color:#000000;font-style:normal;font-variant:normal;font-weight:normal;font-stretch:normal;font-size:23.406548px;line-height:125%;font-family:'Comic Sans MS';text-indent:0;text-align:start;text-decoration:none;text-decoration-line:none;letter-spacing:normal;word-spacing:normal;text-transform:none;writing-mode:lr-tb;direction:ltr;text-anchor:start;display:inline;overflow:visible;visibility:visible;opacity:1;fill:#0000ff;fill-opacity:1;fill-rule:nonzero;stroke:none;stroke-width:0.628654px;stroke-linecap:butt;stroke-linejoin:miter;stroke-miterlimit:4;stroke-dasharray:none;stroke-dashoffset:0;stroke-opacity:1;marker:none;marker-start:none;marker-mid:none;marker-end:none"
       x="228.943"
       y="315.954"
       id="text22764"><tspan
         sodipodi:role="line"
         id="tspan22766"
         x="228.943"
         y="315.954"
         style="fill:#0000ff;fill-opacity:1;stroke-width:0.628654px">a</tspan></text>
    <text
       id="text22768"
       y="342.172"
       x="227.754"
       style="color:#000000;font-style:normal;font-variant:normal;font-weight:normal;font-stretch:normal;font-size:23.406548px;line-height:125%;font-family:'Comic Sans MS';text-indent:0;text-align:start;text-decoration:none;text-decoration-line:none;letter-spacing:normal;word-spacing:normal;text-transform:none;writing-mode:lr-tb;direction:ltr;text-anchor:start;display:inline;overflow:visible;visibility:visible;opacity:1;fill:#ff8c00;fill-opacity:1;fill-rule:nonzero;stroke:none;stroke-width:0.628654px;stroke-linecap:butt;stroke-linejoin:miter;stroke-miterlimit:4;stroke-dasharray:none;stroke-dashoffset:0;stroke-opacity:1;marker:none;marker-start:none;marker-mid:none;marker-end:none"
       xml:space="preserve"><tspan
         y="342.172"
         x="227.754"
         id="tspan22770"
         sodipodi:role="line"
         style="fill:#ff8c00;fill-opacity:1;stroke-width:0.628654px">b</tspan></text>
    <path
       style="fill:#19aeff;fill-opacity:0.75;fill-rule:evenodd;stroke:#19aeff;stroke-width:1.170327;stroke-linecap:butt;stroke-linejoin:miter;stroke-miterlimit:4;stroke-dasharray:none;stroke-opacity:1"
       d="M 215.656,322.01 H 254.39"
       id="path25451"
       inkscape:connector-curvature="0" />
    <path
       id="path26338"
       d="m 296.083,322.01 h 48.97"
       style="fill:#19aeff;fill-opacity:0.75;fill-rule:evenodd;stroke:#19aeff;stroke-width:1.170327;stroke-linecap:butt;stroke-linejoin:miter;stroke-miterlimit:4;stroke-dasharray:none;stroke-opacity:1"
       inkscape:connector-curvature="0" />
    <text
       id="text26340"
       y="329.36"
       x="269.663"
       style="color:#000000;font-style:normal;font-variant:normal;font-weight:normal;font-stretch:normal;font-size:23.406548px;line-height:125%;font-family:'Comic Sans MS';text-indent:0;text-align:start;text-decoration:none;text-decoration-line:none;letter-spacing:normal;word-spacing:normal;text-transform:none;writing-mode:lr-tb;direction:ltr;text-anchor:start;display:inline;overflow:visible;visibility:visible;opacity:1;fill:#2e3436;fill-opacity:1;fill-rule:nonzero;stroke:none;stroke-width:0.628654px;stroke-linecap:butt;stroke-linejoin:miter;stroke-miterlimit:4;stroke-dasharray:none;stroke-dashoffset:0;stroke-opacity:1;marker:none;marker-start:none;marker-mid:none;marker-end:none"
       xml:space="preserve"><tspan
         y="329.36"
         x="269.663"
         id="tspan26342"
         sodipodi:role="line"
         style="stroke-width:0.628654px">=</tspan></text>
    <text
       xml:space="preserve"
       style="color:#000000;font-style:normal;font-variant:normal;font-weight:normal;font-stretch:normal;font-size:23.406548px;line-height:125%;font-family:'Comic Sans MS';text-indent:0;text-align:start;text-decoration:none;text-decoration-line:none;letter-spacing:normal;word-spacing:normal;text-transform:none;writing-mode:lr-tb;direction:ltr;text-anchor:start;display:inline;overflow:visible;visibility:visible;opacity:1;fill:#2e3436;fill-opacity:1;fill-rule:nonzero;stroke:none;stroke-width:0.628654px;stroke-linecap:butt;stroke-linejoin:miter;stroke-miterlimit:4;stroke-dasharray:none;stroke-dashoffset:0;stroke-opacity:1;marker:none;marker-start:none;marker-mid:none;marker-end:none"
       x="451.157"
       y="329.686"
       id="text26344"><tspan
         sodipodi:role="line"
         id="tspan26346"
         x="451.157"
         y="329.686"
         style="stroke-width:0.628654px">=</tspan></text>
    <text
       id="text26348"
       y="329.377"
       x="477.283"
       style="color:#000000;font-style:normal;font-variant:normal;font-weight:normal;font-stretch:normal;font-size:54.045044px;line-height:125%;font-family:'Times New Roman';text-indent:0;text-align:start;text-decoration:none;text-decoration-line:none;letter-spacing:normal;word-spacing:normal;text-transform:none;writing-mode:lr-tb;direction:ltr;text-anchor:start;display:inline;overflow:visible;visibility:visible;opacity:1;fill:#daa520;fill-opacity:1;fill-rule:nonzero;stroke:none;stroke-width:0.585163px;stroke-linecap:butt;stroke-linejoin:miter;stroke-miterlimit:4;stroke-dasharray:none;stroke-dashoffset:0;stroke-opacity:1;marker:none;marker-start:none;marker-mid:none;marker-end:none;"
       xml:space="preserve"
       transform="scale(0.998124,1.00188)"><tspan
         y="329.377"
         x="477.283"
         id="tspan26350"
         sodipodi:role="line"
         style="stroke-width:0.585163;fill:#daa520;fill-opacity:1;stroke:none;">φ</tspan></text>
    <text
       id="text26352"
       y="329.686"
       x="356.898"
       style="color:#000000;font-style:normal;font-variant:normal;font-weight:normal;font-stretch:normal;font-size:23.406548px;line-height:125%;font-family:'Comic Sans MS';text-indent:0;text-align:start;text-decoration:none;text-decoration-line:none;letter-spacing:normal;word-spacing:normal;text-transform:none;writing-mode:lr-tb;direction:ltr;text-anchor:start;display:inline;overflow:visible;visibility:visible;opacity:1;fill:#2e3436;fill-opacity:1;fill-rule:nonzero;stroke:none;stroke-width:0.628654px;stroke-linecap:butt;stroke-linejoin:miter;stroke-miterlimit:4;stroke-dasharray:none;stroke-dashoffset:0;stroke-opacity:1;marker:none;marker-start:none;marker-mid:none;marker-end:none"
       xml:space="preserve"><tspan
         y="329.686"
         x="356.898"
         id="tspan26354"
         sodipodi:role="line"
         style="stroke-width:0.628654px">=</tspan></text>
    <text
       xml:space="preserve"
       style="color:#000000;font-style:normal;font-variant:normal;font-weight:normal;font-stretch:normal;font-size:19.104551px;line-height:125%;font-family:'Comic Sans MS';text-indent:0;text-align:start;text-decoration:none;text-decoration-line:none;letter-spacing:normal;word-spacing:normal;text-transform:none;writing-mode:lr-tb;direction:ltr;text-anchor:start;display:inline;overflow:visible;visibility:visible;opacity:1;fill:#daa520;fill-opacity:1;fill-rule:nonzero;stroke:none;stroke-width:0.628654px;stroke-linecap:butt;stroke-linejoin:miter;stroke-miterlimit:4;stroke-dasharray:none;stroke-dashoffset:0;stroke-opacity:1;marker:none;marker-start:none;marker-mid:none;marker-end:none"
       x="380.354"
       y="329.195"
       id="text26356"><tspan
         sodipodi:role="line"
         id="tspan26358"
         x="380.354"
         y="329.195"
         style="fill:#daa520;stroke-width:0.628654px;fill-opacity:1">1.618...</tspan></text>
    <path
       id="path27247"
       d="m 399.296,175.48 v 56.287"
       style="fill:none;fill-opacity:0.75;fill-rule:evenodd;stroke:#000000;stroke-width:0.386601;stroke-linecap:butt;stroke-linejoin:miter;stroke-miterlimit:4;stroke-dasharray:1.546404, 1.54640399999999989;stroke-dashoffset:0;stroke-opacity:1"
       inkscape:connector-curvature="0" />
    <g
       id="g4919"
       transform="matrix(0.590278,0,0,0.585164,135.626,-62.0822)"
       style="stroke:#0000ff;stroke-width:6;stroke-miterlimit:4;stroke-dasharray:none;stroke-opacity:1">
      <path
         sodipodi:nodetypes="cssc"
         inkscape:connector-curvature="0"
         id="path4897"
         d="m 102.418,351.242 c 0,0 -0.958,-10.513 21.9,-13.096 22.857,-2.583 107.226,12.742 130.083,2.41 19.29,-8.719 18.52,-13.239 18.52,-13.239"
         style="fill:none;fill-rule:evenodd;stroke:#0000ff;stroke-width:6;stroke-linecap:round;stroke-linejoin:miter;stroke-miterlimit:4;stroke-dasharray:none;stroke-opacity:1" />
      <path
         style="fill:none;fill-rule:evenodd;stroke:#0000ff;stroke-width:6;stroke-linecap:round;stroke-linejoin:miter;stroke-miterlimit:4;stroke-dasharray:none;stroke-opacity:1"
         d="m 444.503,351.242 c 0,0 0.959,-10.513 -21.899,-13.096 -22.857,-2.583 -107.226,12.742 -130.083,2.41 -19.29,-8.719 -18.52,-13.239 -18.52,-13.239"
         id="path4901"
         inkscape:connector-curvature="0"
         sodipodi:nodetypes="cssc" />
    </g>
    <g
       id="g4915"
       style="stroke:#ff8c00;stroke-width:6;stroke-miterlimit:4;stroke-dasharray:none;stroke-opacity:1"
       transform="matrix(0.603779,0,0,0.578295,125.406,-26.135)">
      <path
         style="fill:none;fill-rule:evenodd;stroke:#ff8c00;stroke-width:6;stroke-linecap:round;stroke-linejoin:miter;stroke-miterlimit:4;stroke-dasharray:none;stroke-opacity:1"
         d="m 455.12,351.125 c 0,0 -1.019,-10.41 23.28,-12.968 24.3,-2.558 35.322,12.617 59.621,2.387 20.507,-8.634 19.688,-13.11 19.688,-13.11"
         id="path4903"
         inkscape:connector-curvature="0"
         sodipodi:nodetypes="cssc" />
      <path
         sodipodi:nodetypes="cssc"
         inkscape:connector-curvature="0"
         id="path4907"
         d="m 659.762,351.125 c 0,0 1.018,-10.41 -23.281,-12.968 -24.299,-2.558 -35.321,12.617 -59.62,2.387 -20.507,-8.634 -19.688,-13.11 -19.688,-13.11"
         style="fill:none;fill-rule:evenodd;stroke:#ff8c00;stroke-width:6;stroke-linecap:round;stroke-linejoin:miter;stroke-miterlimit:4;stroke-dasharray:none;stroke-opacity:1" />
    </g>
    <g
       id="g4955"
       transform="matrix(0.581561,0.173782,0.140494,-0.487214,104.599,199.116)"
       style="fill:#19aeff">
      <path
         inkscape:connector-curvature="0"
         d="m 296.844,253.253 c 1.096,-0.714 2.147,-1.502 3.287,-2.143 0.248,-0.139 0.557,-0.111 0.834,-0.174 0.301,-0.07 0.601,-0.148 0.901,-0.223 1.083,-0.273 2.166,-0.544 3.25,-0.812 2.694,-0.633 5.411,-1.158 8.135,-1.645 2.844,-0.508 5.704,-0.925 8.567,-1.311 2.916,-0.38 5.839,-0.698 8.764,-0.992 2.997,-0.293 5.998,-0.529 9,-0.751 3.378,-0.229 6.759,-0.403 10.141,-0.565 3.736,-0.214 7.479,-0.19 11.219,-0.187 3.853,0 7.706,0.04 11.558,0.128 3.732,0.08 7.463,0.203 11.194,0.333 3.895,0.105 7.781,0.375 11.669,0.617 4.769,0.3 9.53,0.721 14.285,1.19 5.104,0.537 10.191,1.209 15.263,1.986 4.804,0.737 9.58,1.648 14.348,2.592 4.525,0.903 9.043,1.844 13.543,2.869 4.2,1.014 8.392,2.061 12.572,3.157 3.482,0.893 6.948,1.844 10.408,2.818 2.866,0.822 5.713,1.705 8.548,2.624 2.372,0.765 4.73,1.571 7.086,2.383 1.985,0.675 3.96,1.382 5.932,2.094 1.758,0.66 3.525,1.293 5.25,2.032 1.841,0.719 3.653,1.503 5.464,2.293 1.978,0.848 3.91,1.797 5.824,2.78 1.673,0.84 3.31,1.75 4.909,2.722 1.413,0.848 2.698,1.878 3.981,2.906 1.055,0.878 2.121,1.743 3.146,2.656 0.142,0.129 0.285,0.257 0.427,0.385 0,0 -4.69,4.301 -4.69,4.301 v 0 c -0.134,-0.118 -0.267,-0.237 -0.401,-0.356 -0.984,-0.854 -1.992,-1.681 -3.002,-2.505 -1.132,-0.902 -2.287,-1.778 -3.543,-2.505 -1.528,-0.896 -3.084,-1.744 -4.671,-2.532 -1.848,-0.926 -3.71,-1.823 -5.614,-2.627 -1.79,-0.777 -3.593,-1.521 -5.403,-2.251 -1.679,-0.673 -3.377,-1.297 -5.075,-1.918 -1.954,-0.704 -3.914,-1.39 -5.879,-2.061 -2.329,-0.8 -4.663,-1.584 -7.008,-2.336 -2.79,-0.888 -5.588,-1.751 -8.407,-2.541 -3.435,-0.962 -6.881,-1.888 -10.335,-2.778 -4.138,-1.07 -8.283,-2.117 -12.444,-3.089 -4.466,-0.996 -8.946,-1.929 -13.435,-2.814 -4.709,-0.919 -9.425,-1.801 -14.171,-2.508 -5.002,-0.739 -10.018,-1.393 -15.051,-1.894 -4.708,-0.45 -9.422,-0.848 -14.144,-1.134 -3.849,-0.24 -7.699,-0.471 -11.555,-0.574 -3.712,-0.128 -7.425,-0.239 -11.138,-0.313 -3.823,-0.07 -7.646,-0.109 -11.47,-0.1 -3.673,0 -7.346,0.03 -11.014,0.252 -3.345,0.169 -6.69,0.347 -10.03,0.597 -2.964,0.229 -5.927,0.474 -8.884,0.782 -2.876,0.305 -5.75,0.629 -8.614,1.029 -2.801,0.4 -5.597,0.831 -8.378,1.353 -2.633,0.5 -5.26,1.033 -7.858,1.694 -1.033,0.264 -2.073,0.516 -3.091,0.834 -1.344,0.421 -3.227,1.953 1.711,-1.412 0,0 -5.911,-2.358 -5.911,-2.358 z"
         id="path4943"
         style="color:#000000;clip-rule:nonzero;display:inline;overflow:visible;visibility:visible;opacity:1;isolation:auto;mix-blend-mode:normal;color-interpolation:sRGB;color-interpolation-filters:linearRGB;solid-color:#000000;solid-opacity:1;fill:#19aeff;fill-opacity:1;fill-rule:nonzero;stroke:none;stroke-width:6;stroke-linecap:round;stroke-linejoin:miter;stroke-miterlimit:4;stroke-dasharray:none;stroke-dashoffset:0;stroke-opacity:1;marker:none;marker-start:none;marker-mid:none;marker-end:none;color-rendering:auto;image-rendering:auto;shape-rendering:auto;text-rendering:auto;enable-background:accumulate" />
      <path
         inkscape:connector-curvature="0"
         d="m 507.954,258.978 c 0.168,0.155 0.345,0.356 0.509,0.531 0.459,0.499 0.951,0.966 1.423,1.452 0.532,0.53 1.07,1.054 1.594,1.592 0.601,0.614 1.15,1.278 1.701,1.937 0.572,0.659 1.138,1.323 1.692,1.998 0.569,0.653 1.113,1.327 1.664,1.995 0.571,0.715 1.115,1.452 1.651,2.194 0.569,0.736 1.087,1.51 1.589,2.292 0.528,0.777 0.997,1.591 1.491,2.39 0.487,0.785 0.976,1.57 1.479,2.345 0.465,0.755 0.991,1.469 1.534,2.168 0.468,0.603 1.034,1.112 1.631,1.581 0.624,0.545 1.311,1.008 1.987,1.483 0,0 -4.345,4.651 -4.345,4.651 v 0 c -0.759,-0.545 -1.514,-1.097 -2.219,-1.712 -0.821,-0.708 -1.598,-1.468 -2.255,-2.335 -0.608,-0.799 -1.203,-1.609 -1.731,-2.465 -0.517,-0.802 -1.025,-1.611 -1.527,-2.424 -0.478,-0.776 -0.937,-1.565 -1.448,-2.32 -0.46,-0.714 -0.94,-1.415 -1.457,-2.088 -0.486,-0.669 -0.977,-1.336 -1.498,-1.978 -0.546,-0.669 -1.101,-1.329 -1.659,-1.987 -0.55,-0.663 -1.11,-1.315 -1.67,-1.969 -0.477,-0.568 -0.953,-1.137 -1.48,-1.66 -0.533,-0.532 -1.066,-1.064 -1.598,-1.596 -0.512,-0.514 -1.027,-1.027 -1.515,-1.564 -0.44,-0.483 -0.879,-0.974 -1.181,-1.559 0,0 5.638,-2.952 5.638,-2.952 z"
         id="path4945"
         style="color:#000000;clip-rule:nonzero;display:inline;overflow:visible;visibility:visible;opacity:1;isolation:auto;mix-blend-mode:normal;color-interpolation:sRGB;color-interpolation-filters:linearRGB;solid-color:#000000;solid-opacity:1;fill:#19aeff;fill-opacity:1;fill-rule:nonzero;stroke:none;stroke-width:6;stroke-linecap:round;stroke-linejoin:miter;stroke-miterlimit:4;stroke-dasharray:none;stroke-dashoffset:0;stroke-opacity:1;marker:none;marker-start:none;marker-mid:none;marker-end:none;color-rendering:auto;image-rendering:auto;shape-rendering:auto;text-rendering:auto;enable-background:accumulate" />
      <path
         inkscape:connector-curvature="0"
         d="m 495.748,277.563 c 0.482,0 0.963,0 1.445,0 0.864,0 1.729,0 2.593,0 0.954,0.01 1.907,0.09 2.86,0.13 0.99,0.04 1.973,0.175 2.955,0.3 1.05,0.09 2.071,0.348 3.105,0.542 0.978,0.18 1.962,0.324 2.948,0.458 1.026,0.14 2.056,0.248 3.087,0.346 1.156,0.159 2.316,0.29 3.476,0.412 1.185,0.143 2.375,0.274 3.553,0.47 1.148,0.152 2.276,0.405 3.403,0.666 1.08,0.276 2.148,0.574 3.188,0.978 0.15,0.06 0.301,0.111 0.451,0.166 0,0 -3.401,5.379 -3.401,5.379 v 0 c -0.145,-0.05 -0.29,-0.103 -0.435,-0.155 -0.892,-0.277 -1.801,-0.506 -2.713,-0.709 -1.032,-0.218 -2.072,-0.381 -3.116,-0.527 -1.136,-0.14 -2.27,-0.296 -3.41,-0.407 -1.149,-0.132 -2.297,-0.283 -3.448,-0.401 -1.087,-0.12 -2.172,-0.254 -3.253,-0.417 -1.044,-0.161 -2.085,-0.335 -3.121,-0.54 -0.938,-0.18 -1.877,-0.33 -2.829,-0.415 -0.885,-0.1 -1.773,-0.155 -2.663,-0.183 -0.888,-0.04 -1.777,-0.09 -2.666,-0.06 -0.865,0 -1.73,0 -2.594,0 -0.482,0 -0.963,0 -1.445,0 0,0 2.03,-6.032 2.03,-6.032 z"
         id="path4947"
         style="color:#000000;clip-rule:nonzero;display:inline;overflow:visible;visibility:visible;opacity:1;isolation:auto;mix-blend-mode:normal;color-interpolation:sRGB;color-interpolation-filters:linearRGB;solid-color:#000000;solid-opacity:1;fill:#19aeff;fill-opacity:1;fill-rule:nonzero;stroke:none;stroke-width:6;stroke-linecap:round;stroke-linejoin:miter;stroke-miterlimit:4;stroke-dasharray:none;stroke-dashoffset:0;stroke-opacity:1;marker:none;marker-start:none;marker-mid:none;marker-end:none;color-rendering:auto;image-rendering:auto;shape-rendering:auto;text-rendering:auto;enable-background:accumulate" />
    </g>
    <rect
       ry="19.8957"
       y="238.472"
       x="174.177"
       height="39.7914"
       width="374.648"
       id="rect4967"
       style="color:#000000;clip-rule:nonzero;display:inline;overflow:visible;visibility:visible;opacity:1;isolation:auto;mix-blend-mode:normal;color-interpolation:sRGB;color-interpolation-filters:linearRGB;solid-color:#000000;solid-opacity:1;fill:#fffce9;fill-opacity:1;fill-rule:nonzero;stroke:none;stroke-width:3.925391;stroke-linecap:round;stroke-linejoin:miter;stroke-miterlimit:4;stroke-dasharray:none;stroke-dashoffset:0;stroke-opacity:1;marker:none;marker-start:none;marker-mid:none;marker-end:none;color-rendering:auto;image-rendering:auto;shape-rendering:auto;text-rendering:auto;enable-background:accumulate" />
    <path
       inkscape:connector-curvature="0"
       id="path4971"
       d="M 195.218,257.531 H 398.734"
       style="fill:none;fill-opacity:1;fill-rule:evenodd;stroke:#0000ff;stroke-width:3.920596;stroke-linecap:butt;stroke-linejoin:miter;stroke-miterlimit:4;stroke-dasharray:none;stroke-opacity:1" />
    <path
       inkscape:connector-curvature="0"
       id="path4973"
       d="M 400.166,257.531 H 526.005"
       style="fill:none;fill-opacity:1;fill-rule:evenodd;stroke:#ff8c00;stroke-width:3.920596;stroke-linecap:butt;stroke-linejoin:miter;stroke-miterlimit:4;stroke-dasharray:none;stroke-opacity:1" />
    <path
       inkscape:connector-curvature="0"
       id="path5027"
       d="m 195.429,243.133 v 30.081"
       style="fill:none;fill-opacity:0.75;fill-rule:evenodd;stroke:#000000;stroke-width:1.3;stroke-linecap:butt;stroke-linejoin:miter;stroke-miterlimit:4;stroke-dasharray:none;stroke-opacity:1" />
    <path
       inkscape:connector-curvature="0"
       style="fill:none;fill-opacity:0.75;fill-rule:evenodd;stroke:#000000;stroke-width:1.3;stroke-linecap:butt;stroke-linejoin:miter;stroke-miterlimit:4;stroke-dasharray:none;stroke-opacity:1"
       d="m 399.296,243.133 v 30.081"
       id="path5029" />
    <path
       inkscape:connector-curvature="0"
       id="path5031"
       d="m 525.303,243.133 v 30.081"
       style="fill:none;fill-opacity:0.75;fill-rule:evenodd;stroke:#000000;stroke-width:1.3;stroke-linecap:butt;stroke-linejoin:miter;stroke-miterlimit:4;stroke-dasharray:none;stroke-opacity:1" />
    <path
       inkscape:connector-curvature="0"
       style="fill:none;fill-opacity:0.75;fill-rule:evenodd;stroke:#000000;stroke-width:0.5;stroke-linecap:butt;stroke-linejoin:miter;stroke-miterlimit:4;stroke-dasharray:2, 2;stroke-dashoffset:0;stroke-opacity:1"
       d="m 525.303,137.617 v 94.15"
       id="path973" />
    <path
       id="path975"
       d="m 195.429,137.617 v 94.15"
       style="fill:none;fill-opacity:0.75;fill-rule:evenodd;stroke:#000000;stroke-width:0.5;stroke-linecap:butt;stroke-linejoin:miter;stroke-miterlimit:4;stroke-dasharray:2, 2;stroke-dashoffset:0;stroke-opacity:1"
       inkscape:connector-curvature="0" />
    <g
       id="g4911"
       transform="matrix(0.591672,0,0,0.584138,136.432,39.7502)"
       style="stroke:#2d2d2d;stroke-width:5.972145;stroke-miterlimit:4;stroke-dasharray:none">
      <path
         sodipodi:nodetypes="cssc"
         inkscape:connector-curvature="0"
         id="path4905"
         d="m 654.627,298.663 c 0,0 0.958,-10.513 -21.899,-13.096 -22.857,-2.583 -213.226,12.742 -236.084,2.411 -19.289,-8.719 -18.519,-13.24 -18.519,-13.24"
         style="fill:none;fill-rule:evenodd;stroke:#2d2d2d;stroke-width:5.972145;stroke-linecap:round;stroke-linejoin:miter;stroke-miterlimit:4;stroke-dasharray:none;stroke-opacity:1" />
      <path
         style="fill:none;fill-rule:evenodd;stroke:#2d2d2d;stroke-width:5.972145;stroke-linecap:round;stroke-linejoin:miter;stroke-miterlimit:4;stroke-dasharray:none;stroke-opacity:1"
         d="m 102.126,298.663 c 0,0 -0.958,-10.513 21.9,-13.096 22.857,-2.583 213.226,12.742 236.083,2.411 19.29,-8.719 18.52,-13.24 18.52,-13.24"
         id="path4909"
         inkscape:connector-curvature="0"
         sodipodi:nodetypes="cssc" />
    </g>
    <g
       id="g4962"
       style="fill:#19aeff"
       transform="matrix(0.489825,-0.092663,-0.034367,-0.692574,172.978,331.12)">
      <path
         inkscape:connector-curvature="0"
         d="m 338.45,168.814 c -0.372,0 -0.743,-0.02 -1.114,-0.04 -0.729,-0.03 -1.457,-0.06 -2.185,-0.08 -0.912,-0.102 -1.809,0.09 -2.712,0.188 -1.252,0.108 -2.489,0.343 -3.719,0.62 -1.381,0.256 -2.742,0.61 -4.104,0.965 -1.349,0.387 -2.68,0.842 -3.98,1.398 -1.348,0.581 -2.66,1.255 -3.953,1.972 -1.353,0.774 -6.35,4.046 -0.646,0.386 -1.197,0.759 -2.351,1.601 -3.494,2.455 -1.047,0.804 -2.056,1.661 -3.059,2.529 -0.898,0.792 -1.743,1.645 -2.578,2.517 -0.755,0.79 -1.453,1.646 -2.141,2.508 -0.637,0.799 -1.181,1.678 -1.686,2.583 -0.494,0.961 -0.999,1.914 -1.436,2.909 -0.448,0.994 -0.917,1.976 -1.336,2.985 -0.423,1.08 -0.914,2.123 -1.373,3.184 -0.474,1.001 -0.91,2.023 -1.335,3.051 -0.471,1.169 -1.014,2.298 -1.574,3.416 -0.535,1.066 -1.049,2.145 -1.565,3.222 -0.503,1.041 -0.957,2.109 -1.436,3.163 -0.511,1.113 -1.017,2.229 -1.523,3.345 -0.506,1.155 -0.997,2.318 -1.53,3.458 -0.482,1.059 -0.997,2.1 -1.458,3.17 -0.455,1.022 -0.917,2.039 -1.359,3.068 -0.468,1.04 -0.924,2.085 -1.369,3.137 -0.346,0.807 -0.671,1.623 -0.93,2.469 0,0 -6.364,0.08 -6.364,0.08 v 0 c 0.303,-0.963 0.535,-1.954 0.937,-2.877 0.436,-1.09 0.869,-2.184 1.374,-3.238 0.461,-1.035 0.903,-2.079 1.362,-3.115 0.503,-1.068 0.939,-2.175 1.461,-3.233 0.517,-1.108 1.054,-2.204 1.523,-3.338 0.485,-1.161 1.021,-2.293 1.529,-3.441 0.495,-1.06 0.987,-2.121 1.439,-3.204 0.509,-1.098 1.007,-2.204 1.569,-3.272 0.504,-1.072 1.072,-2.104 1.559,-3.186 0.459,-1.054 0.869,-2.132 1.343,-3.177 0.483,-0.997 0.924,-2.022 1.364,-3.042 0.444,-1.045 0.849,-2.108 1.345,-3.125 0.49,-1.028 0.88,-2.116 1.45,-3.099 0.53,-1.13 1.099,-2.239 1.778,-3.269 0.694,-1.038 1.463,-2.002 2.238,-2.965 0.852,-0.986 1.714,-1.971 2.664,-2.843 1.002,-1.008 2.062,-1.95 3.155,-2.834 1.168,-0.994 2.385,-1.911 3.62,-2.799 2.45,-1.588 4.863,-3.272 7.467,-4.542 1.427,-0.698 2.872,-1.357 4.359,-1.886 1.444,-0.49 2.9,-0.941 4.379,-1.283 1.42,-0.344 2.851,-0.629 4.283,-0.904 1.341,-0.224 2.688,-0.386 4.04,-0.494 1.046,-0.08 2.088,-0.05 3.134,0.01 0.77,0.03 1.541,0.07 2.309,0.145 0.496,0.05 0.994,0.113 1.477,0.256 0,0 -3.199,6.096 -3.199,6.096 z"
         id="path4935"
         style="color:#000000;clip-rule:nonzero;display:inline;overflow:visible;visibility:visible;opacity:1;isolation:auto;mix-blend-mode:normal;color-interpolation:sRGB;color-interpolation-filters:linearRGB;solid-color:#000000;solid-opacity:1;fill:#19aeff;fill-opacity:1;fill-rule:nonzero;stroke:none;stroke-width:6;stroke-linecap:round;stroke-linejoin:miter;stroke-miterlimit:4;stroke-dasharray:none;stroke-dashoffset:0;stroke-opacity:1;marker:none;marker-start:none;marker-mid:none;marker-end:none;color-rendering:auto;image-rendering:auto;shape-rendering:auto;text-rendering:auto;enable-background:accumulate" />
      <path
         inkscape:connector-curvature="0"
         d="m 282.571,204.925 c -0.166,0.243 -0.223,0.54 -0.285,0.822 -0.09,0.48 -0.169,0.962 -0.208,1.448 -0.02,0.61 -0.05,1.22 -0.03,1.83 0.01,0.68 0.103,1.354 0.177,2.029 0.09,0.795 0.212,1.586 0.314,2.38 0.115,0.91 0.205,1.822 0.288,2.735 0.09,0.979 0.158,1.959 0.214,2.94 0.04,0.982 0.04,1.964 0.04,2.946 0.02,1.018 -0.01,2.036 -0.08,3.051 -0.07,0.977 -0.186,1.951 -0.338,2.919 -0.147,0.937 -0.333,1.868 -0.543,2.794 -0.08,0.419 -0.227,0.815 -0.275,1.238 0,0 -6.285,0.999 -6.285,0.999 v 0 c 0.04,-0.595 0.02,-1.199 0.213,-1.772 0.202,-0.853 0.414,-1.704 0.564,-2.567 0.156,-0.86 0.307,-1.723 0.382,-2.595 0.09,-0.906 0.158,-1.815 0.146,-2.726 0,-0.941 0,-1.883 -0.02,-2.824 -0.01,-0.922 -0.105,-1.84 -0.169,-2.759 -0.07,-0.868 -0.15,-1.736 -0.251,-2.601 -0.1,-0.817 -0.204,-1.633 -0.332,-2.445 -0.08,-0.752 -0.183,-1.5 -0.236,-2.253 -0.04,-0.714 -0.06,-1.427 -0.04,-2.142 0,-0.646 0.04,-1.288 0.137,-1.928 0.07,-0.509 0.137,-1.017 0.247,-1.518 0,0 6.364,-10e-4 6.364,-10e-4 z"
         id="path4937"
         style="color:#000000;clip-rule:nonzero;display:inline;overflow:visible;visibility:visible;opacity:1;isolation:auto;mix-blend-mode:normal;color-interpolation:sRGB;color-interpolation-filters:linearRGB;solid-color:#000000;solid-opacity:1;fill:#19aeff;fill-opacity:1;fill-rule:nonzero;stroke:none;stroke-width:6;stroke-linecap:round;stroke-linejoin:miter;stroke-miterlimit:4;stroke-dasharray:none;stroke-dashoffset:0;stroke-opacity:1;marker:none;marker-start:none;marker-mid:none;marker-end:none;color-rendering:auto;image-rendering:auto;shape-rendering:auto;text-rendering:auto;enable-background:accumulate" />
      <path
         inkscape:connector-curvature="0"
         d="m 301.277,220.13 c -0.642,0.21 -1.212,0.571 -1.828,0.844 -1.329,0.693 -4.772,2.752 0.799,-0.466 -1.04,0.604 -2.072,1.219 -3.108,1.829 -1.013,0.621 -2.009,1.266 -3.002,1.917 -0.929,0.613 -1.812,1.287 -2.707,1.948 -0.876,0.674 -1.73,1.377 -2.535,2.136 -0.802,0.674 -1.508,1.442 -2.212,2.214 -0.668,0.71 -1.263,1.479 -1.8,2.291 -0.291,0.42 -0.555,0.857 -0.814,1.297 0,0 -6.32,-0.752 -6.32,-0.752 v 0 c 0.29,-0.459 0.551,-0.932 0.827,-1.399 0.604,-0.958 1.171,-1.943 1.895,-2.819 0.74,-0.896 1.487,-1.793 2.313,-2.612 0.875,-0.803 1.694,-1.668 2.623,-2.411 0.894,-0.765 1.83,-1.487 2.788,-2.17 0.993,-0.741 2.014,-1.445 3.071,-2.092 1.025,-0.686 2.082,-1.324 3.153,-1.935 1.986,-1.154 3.922,-2.379 6.046,-3.259 0.642,-0.307 1.312,-0.536 1.963,-0.82 0,0 -1.152,6.259 -1.152,6.259 z"
         id="path4939"
         style="color:#000000;clip-rule:nonzero;display:inline;overflow:visible;visibility:visible;opacity:1;isolation:auto;mix-blend-mode:normal;color-interpolation:sRGB;color-interpolation-filters:linearRGB;solid-color:#000000;solid-opacity:1;fill:#19aeff;fill-opacity:1;fill-rule:nonzero;stroke:none;stroke-width:6;stroke-linecap:round;stroke-linejoin:miter;stroke-miterlimit:4;stroke-dasharray:none;stroke-dashoffset:0;stroke-opacity:1;marker:none;marker-start:none;marker-mid:none;marker-end:none;color-rendering:auto;image-rendering:auto;shape-rendering:auto;text-rendering:auto;enable-background:accumulate" />
    </g>
  </g>
</svg>
